<?xml version="1.0" standalone="no"?>
<!DOCTYPE svg PUBLIC "-//W3C//DTD SVG 20010904//EN"
 "http://www.w3.org/TR/2001/REC-SVG-20010904/DTD/svg10.dtd">
<svg version="1.0" xmlns="http://www.w3.org/2000/svg"
 width="900.000000pt" height="900.000000pt" viewBox="0 0 900.000000 900.000000"
 preserveAspectRatio="xMidYMid meet">
<metadata>
Created by potrace 1.10, written by Peter Selinger 2001-2011
</metadata>
<g transform="translate(0.000000,900.000000) scale(0.100000,-0.100000)"
fill="#1a1b26" stroke="none">
<path d="M2092 7608 c-17 -17 -17 -6219 0 -6236 19 -19 4781 -17 4797 2 8 10
10 716 9 2698 l-3 2684 -26 25 c-15 13 -163 157 -330 319 -484 470 -520 505
-537 512 -9 4 -890 7 -1957 7 -1497 1 -1944 -2 -1953 -11z m3686 -413 c9 -3
12 -76 12 -318 0 -230 3 -316 12 -325 9 -9 98 -12 339 -12 251 0 330 -3 336
-12 14 -22 11 -4727 -2 -4738 -16 -14 -3953 -14 -3969 -1 -9 8 -12 653 -12
2701 1 2455 2 2693 17 2703 12 9 412 11 1635 10 890 -2 1625 -5 1632 -8z"/>
<path d="M3795 4911 c-220 -32 -391 -189 -459 -420 -24 -82 -22 -306 4 -391
67 -215 193 -340 409 -404 72 -22 250 -22 322 0 161 48 279 143 340 274 26 54
51 146 47 172 l-3 23 -174 0 -175 0 -22 -55 c-31 -77 -81 -126 -138 -133 -167
-23 -266 97 -266 323 0 119 24 199 80 263 92 105 263 78 320 -50 11 -26 25
-50 29 -53 5 -3 84 -4 176 -2 l167 3 -6 32 c-17 91 -25 117 -52 172 -32 66
-121 162 -174 189 -84 42 -144 56 -259 60 -64 3 -138 1 -166 -3z"/>
<path d="M4504 4863 c14 -56 25 -99 41 -150 45 -148 85 -284 125 -418 11 -38
27 -90 34 -115 8 -25 21 -69 29 -98 21 -68 42 -140 62 -205 9 -28 20 -69 26
-91 21 -81 6 -77 231 -74 226 3 205 -5 233 93 10 33 23 76 30 95 13 36 30 93
60 195 10 33 23 76 30 95 7 19 21 62 30 95 10 33 23 76 30 95 7 19 20 62 30
95 38 128 48 161 60 195 7 19 21 62 30 95 10 33 22 70 26 83 5 13 7 28 4 33
-4 5 -86 9 -185 9 -177 0 -179 0 -185 -22 -3 -13 -12 -45 -20 -73 -8 -27 -21
-79 -30 -115 -9 -36 -23 -89 -31 -117 -8 -29 -21 -77 -28 -105 -8 -29 -21 -78
-29 -108 -9 -30 -18 -69 -22 -87 -12 -58 -55 -70 -55 -15 0 15 -6 47 -14 72
-8 25 -21 70 -29 100 -8 30 -22 82 -32 115 -35 129 -44 161 -50 185 -19 81
-38 147 -47 158 -8 9 -58 12 -185 12 l-175 0 6 -27z"/>
</g>
</svg>
