<?xml version="1.0" encoding="UTF-8" standalone="no"?>
<!DOCTYPE svg PUBLIC "-//W3C//DTD SVG 1.1//EN" "http://www.w3.org/Graphics/SVG/1.1/DTD/svg11.dtd">
<svg width="100%" height="100%" viewBox="0 0 38 38" version="1.1" xmlns="http://www.w3.org/2000/svg" xmlns:xlink="http://www.w3.org/1999/xlink" xml:space="preserve" xmlns:serif="http://www.serif.com/" style="fill-rule:evenodd;clip-rule:evenodd;stroke-linejoin:round;stroke-miterlimit:2;">
    <g transform="matrix(0.939864,0,0,0.834687,-186.115,-845.051)">
        <rect id="アートボード1" x="198.023" y="1012.42" width="39.893" height="44.798" style="fill:none;"/>
        <g id="アートボード11" serif:id="アートボード1">
            <g transform="matrix(1.06398,0,0,1.19805,-15.1984,-206.574)">
                <g transform="matrix(1.33333,0,0,1.33333,0,949.56)">
                    <path d="M168.668,78.697C166.631,78.697 164.436,78.191 162.319,77.234C160.139,76.249 158.037,74.778 156.239,72.979C153.258,69.997 151.292,66.356 150.702,62.723C150.106,59.059 150.978,55.84 153.157,53.662C154.882,51.936 157.263,51.024 160.044,51.024C162.08,51.024 164.276,51.53 166.391,52.486C168.572,53.474 170.675,54.945 172.472,56.742C175.453,59.723 177.419,63.366 178.01,66.998C178.605,70.663 177.732,73.881 175.554,76.061C173.828,77.786 171.447,78.697 168.668,78.697M160.044,51.534C157.403,51.534 155.146,52.394 153.519,54.023C151.459,56.082 150.637,59.144 151.205,62.641C151.779,66.169 153.695,69.711 156.6,72.618C160.087,76.106 164.597,78.187 168.668,78.187C171.31,78.187 173.565,77.326 175.192,75.699C179.469,71.423 178.087,63.08 172.111,57.103C168.625,53.615 164.113,51.534 160.044,51.534" style="fill:rgb(0,52,97);fill-rule:nonzero;"/>
                </g>
                <g transform="matrix(1.33333,0,0,1.33333,0,949.56)">
                    <path d="M160.044,78.697C157.264,78.697 154.883,77.786 153.158,76.061C150.978,73.881 150.106,70.663 150.702,66.998C151.292,63.366 153.259,59.723 156.239,56.742C158.037,54.945 160.139,53.474 162.32,52.486C164.436,51.53 166.631,51.024 168.668,51.024C171.448,51.024 173.829,51.936 175.554,53.662C177.733,55.84 178.605,59.059 178.011,62.723C177.42,66.356 175.453,69.997 172.473,72.979C170.675,74.778 168.573,76.249 166.392,77.235C164.276,78.191 162.081,78.697 160.044,78.697M168.668,51.534C164.598,51.534 160.087,53.615 156.6,57.103C153.695,60.01 151.779,63.554 151.206,67.081C150.637,70.579 151.459,73.64 153.519,75.699C155.146,77.326 157.403,78.187 160.044,78.187C164.113,78.187 168.625,76.106 172.112,72.618C175.017,69.711 176.933,66.169 177.506,62.641C178.074,59.144 177.253,56.082 175.193,54.023C173.566,52.394 171.31,51.534 168.668,51.534" style="fill:rgb(0,52,97);fill-rule:nonzero;"/>
                </g>
                <g transform="matrix(-0.942842,0.942776,0.942776,0.942842,312.955,819.936)">
                    <path d="M164.357,54.649C158.717,54.648 154.146,59.218 154.146,64.86C154.146,70.499 158.717,75.07 164.357,75.071C169.997,75.071 174.568,70.5 174.568,64.861C174.567,59.222 169.996,54.65 164.357,54.649" style="fill:rgb(0,52,97);fill-rule:nonzero;"/>
                </g>
                <g transform="matrix(1.33333,0,0,1.33333,0,949.577)">
                    <path d="M165.377,66.285C165.377,68.735 164.152,69.96 161.701,69.96L161.293,69.96C161.181,69.96 161.089,69.869 161.089,69.757L161.089,68.531C161.089,68.418 161.181,68.327 161.293,68.327C162.722,68.327 163.335,67.715 163.335,66.285L163.335,63.425C163.335,60.974 164.56,59.748 167.01,59.748L167.419,59.748C167.532,59.748 167.623,59.84 167.623,59.952L167.623,61.178C167.623,61.292 167.532,61.382 167.419,61.382C165.99,61.382 165.377,61.996 165.377,63.425L165.377,66.285Z" style="fill:white;fill-rule:nonzero;"/>
                </g>
                <g transform="matrix(1.33333,0,0,1.33333,0,949.578)">
                    <path d="M170.073,63.424C170.073,61.995 170.686,61.382 172.115,61.382C172.228,61.382 172.319,61.291 172.319,61.178L172.319,59.951C172.319,59.84 172.228,59.748 172.115,59.748L171.707,59.748C169.256,59.748 168.031,60.973 168.031,63.424L168.031,69.756C168.031,69.868 168.122,69.959 168.235,69.959L169.869,69.959C169.981,69.959 170.073,69.868 170.073,69.756L170.073,63.424Z" style="fill:white;fill-rule:nonzero;"/>
                </g>
                <g transform="matrix(1.33333,0,0,1.33333,0,949.577)">
                    <path d="M158.638,66.285C158.638,67.715 158.027,68.327 156.597,68.327C156.484,68.327 156.393,68.418 156.393,68.531L156.393,69.757C156.393,69.869 156.484,69.96 156.597,69.96L157.005,69.96C159.455,69.96 160.68,68.735 160.68,66.285L160.68,59.952C160.68,59.84 160.589,59.748 160.476,59.748L158.843,59.748C158.73,59.748 158.638,59.84 158.638,59.952L158.638,66.285Z" style="fill:white;fill-rule:nonzero;"/>
                </g>
                <g transform="matrix(0,-1.33333,-1.33333,0,315.695,1265.25)">
                    <path d="M171.911,63.431C171.121,63.431 170.482,64.071 170.482,64.86C170.482,65.649 171.121,66.289 171.911,66.289C172.7,66.289 173.341,65.649 173.341,64.86C173.341,64.071 172.7,63.431 171.911,63.431" style="fill:white;fill-rule:nonzero;"/>
                </g>
            </g>
        </g>
    </g>
</svg>
