<?xml version="1.0" encoding="UTF-8" standalone="no"?>
<!-- Created with Inkscape (http://www.inkscape.org/) -->

<svg
   width="210mm"
   height="297mm"
   viewBox="0 0 210 297"
   version="1.1"
   id="svg1"
   xml:space="preserve"
   inkscape:version="1.3.2 (091e20e, 2023-11-25)"
   xmlns:inkscape="http://www.inkscape.org/namespaces/inkscape"
   xmlns:sodipodi="http://sodipodi.sourceforge.net/DTD/sodipodi-0.dtd"
   xmlns="http://www.w3.org/2000/svg"
   xmlns:svg="http://www.w3.org/2000/svg"><sodipodi:namedview
     id="namedview1"
     pagecolor="#505050"
     bordercolor="#eeeeee"
     borderopacity="1"
     inkscape:showpageshadow="0"
     inkscape:pageopacity="0"
     inkscape:pagecheckerboard="0"
     inkscape:deskcolor="#505050"
     inkscape:document-units="mm"
     inkscape:zoom="0.70710678"
     inkscape:cx="593.96969"
     inkscape:cy="307.59145"
     inkscape:window-width="1896"
     inkscape:window-height="1001"
     inkscape:window-x="12"
     inkscape:window-y="67"
     inkscape:window-maximized="1"
     inkscape:current-layer="layer1" /><defs
     id="defs1"><linearGradient
       id="swatch11"><stop
         style="stop-color:#ffffff;stop-opacity:1;"
         offset="0"
         id="stop11" /></linearGradient></defs><g
     inkscape:label="Capa 1"
     inkscape:groupmode="layer"
     id="layer1"><g
       style="fill:#303030;fill-opacity:1"
       id="g6"
       transform="matrix(0.26458333,0,0,0.26458333,76.571401,58.095612)"><rect
         width="233"
         height="34"
         fill="#000000"
         id="rect1"
         x="0"
         y="0"
         style="fill:#303030;fill-opacity:1" /></g><g
       style="fill:#303030;fill-opacity:1"
       id="g4"
       transform="matrix(0.26458333,0,0,0.25970346,138.1798,57.898963)"><path
         d="M 27.125839,18.080299 0.1258384,35.400799 V 0.75979057 Z"
         fill="#000000"
         id="path1"
         style="fill:#303030;fill-opacity:1" /></g><g
       style="fill:#c45e72;stroke-width:1.00157;stroke-dasharray:none;fill-opacity:1"
       id="g5"
       transform="matrix(0.26458333,0,0,0.26458333,98.941058,58.725842)"><path
         d="M 0.818182,24 V 0.727272 H 8.68182 c 1.82578,0 3.31818,0.329548 4.47728,0.988638 1.1667,0.65151 2.0303,1.53409 2.5909,2.64773 0.5606,1.11363 0.8409,2.35606 0.8409,3.72727 0,1.37121 -0.2803,2.61739 -0.8409,3.73859 -0.553,1.1213 -1.4091,2.0152 -2.5682,2.6819 C 12.0227,15.1705 10.5379,15.5 8.72727,15.5 H 3.09091 V 13 h 5.54545 c 1.25,0 2.25384,-0.2159 3.01134,-0.6477 0.7576,-0.4318 1.3068,-1.0152 1.6478,-1.75 0.3484,-0.74245 0.5227,-1.57957 0.5227,-2.51139 0,-0.93182 -0.1743,-1.76515 -0.5227,-2.5 C 12.9545,4.85606 12.4015,4.2803 11.6364,3.86364 10.8712,3.43939 9.85606,3.22727 8.59091,3.22727 H 3.63636 V 24 Z M 20.767,24 V 6.54545 h 2.591 v 2.63637 h 0.1818 c 0.3182,-0.86364 0.8939,-1.5644 1.7272,-2.10228 0.8334,-0.53787 1.7728,-0.80681 2.8182,-0.80681 0.197,0 0.4432,0.00378 0.7387,0.01136 0.2954,0.00758 0.5189,0.01894 0.6704,0.03409 V 9.04545 C 29.4034,9.02273 29.1951,8.98864 28.8693,8.94318 28.5511,8.89015 28.214,8.86364 27.858,8.86364 c -0.8485,0 -1.6061,0.17803 -2.2728,0.53409 -0.6591,0.34848 -1.1818,0.83337 -1.5682,1.45457 -0.3787,0.6136 -0.5681,1.3144 -0.5681,2.1022 V 24 Z m 18.466,0.3636 c -1.5758,0 -2.9584,-0.375 -4.1478,-1.125 -1.1818,-0.75 -2.106,-1.7992 -2.7727,-3.1477 -0.6591,-1.3485 -0.9886,-2.9242 -0.9886,-4.7273 0,-1.8181 0.3295,-3.4053 0.9886,-4.7613 0.6667,-1.35609 1.5909,-2.40912 2.7727,-3.15912 1.1894,-0.75 2.572,-1.125 4.1478,-1.125 1.5757,0 2.9545,0.375 4.1363,1.125 1.1894,0.75 2.1137,1.80303 2.7727,3.15912 0.6667,1.356 1,2.9432 1,4.7613 0,1.8031 -0.3333,3.3788 -1,4.7273 -0.659,1.3485 -1.5833,2.3977 -2.7727,3.1477 -1.1818,0.75 -2.5606,1.125 -4.1363,1.125 z m 0,-2.4091 c 1.1969,0 2.1818,-0.3068 2.9545,-0.9204 0.7727,-0.6136 1.3447,-1.4205 1.7159,-2.4205 0.3712,-1 0.5568,-2.0833 0.5568,-3.25 0,-1.1666 -0.1856,-2.2538 -0.5568,-3.2613 -0.3712,-1.0076 -0.9432,-1.822 -1.7159,-2.44321 -0.7727,-0.62121 -1.7576,-0.93182 -2.9545,-0.93182 -1.197,0 -2.1819,0.31061 -2.9546,0.93182 -0.7727,0.62121 -1.3447,1.43561 -1.7159,2.44321 -0.3712,1.0075 -0.5568,2.0947 -0.5568,3.2613 0,1.1667 0.1856,2.25 0.5568,3.25 0.3712,1 0.9432,1.8069 1.7159,2.4205 0.7727,0.6136 1.7576,0.9204 2.9546,0.9204 z m 13.1051,8.591 c -0.4546,0 -0.8599,-0.0379 -1.2159,-0.1137 -0.3561,-0.0682 -0.6023,-0.1363 -0.7387,-0.2045 l 0.6818,-2.3637 c 0.6516,0.1667 1.2273,0.2273 1.7273,0.1819 0.5,-0.0455 0.9432,-0.269 1.3296,-0.6705 0.3939,-0.3939 0.7537,-1.0341 1.0795,-1.9205 l 0.5,-1.3636 -6.4545,-17.54545 h 2.909 l 4.8182,13.90905 h 0.1818 L 61.9744,6.54545 h 2.9091 L 57.4744,26.5455 c -0.3333,0.9015 -0.7462,1.6477 -1.2386,2.2386 -0.4924,0.5985 -1.0644,1.0417 -1.7159,1.3295 -0.644,0.2879 -1.3712,0.4319 -2.1818,0.4319 z m 22.7784,-6.1819 c -1.6818,0 -3.1326,-0.3712 -4.3523,-1.1136 -1.2121,-0.75 -2.1477,-1.7955 -2.8068,-3.1364 -0.6515,-1.3484 -0.9773,-2.9166 -0.9773,-4.7045 0,-1.7879 0.3258,-3.3636 0.9773,-4.7273 0.6591,-1.37119 1.5757,-2.43938 2.75,-3.20453 1.1818,-0.77272 2.5606,-1.15909 4.1364,-1.15909 0.909,0 1.8068,0.15152 2.6931,0.45455 0.8864,0.30303 1.6932,0.79545 2.4205,1.47727 0.7273,0.67424 1.3068,1.56818 1.7386,2.6818 0.4318,1.1137 0.6478,2.4849 0.6478,4.1137 v 1.1363 H 68.8892 V 13.8636 H 79.6165 C 79.6165,12.8788 79.4195,12 79.0256,11.2273 78.6392,10.4545 78.0862,9.8447 77.3665,9.39773 76.6544,8.95076 75.8134,8.72727 74.8438,8.72727 c -1.0682,0 -1.9925,0.26515 -2.7728,0.79546 -0.7727,0.52277 -1.3674,1.20457 -1.7841,2.04547 -0.4166,0.8409 -0.625,1.7424 -0.625,2.7045 v 1.5455 c 0,1.3182 0.2273,2.4356 0.6819,3.3523 0.4621,0.909 1.1022,1.6022 1.9204,2.0795 0.8182,0.4697 1.7689,0.7045 2.8523,0.7045 0.7045,0 1.3409,-0.0984 1.9091,-0.2954 0.5757,-0.2046 1.0719,-0.5076 1.4886,-0.9091 0.4167,-0.4091 0.7386,-0.9167 0.9659,-1.5227 l 2.5909,0.7272 c -0.2727,0.8788 -0.731,1.6516 -1.375,2.3182 -0.6439,0.6591 -1.4394,1.1743 -2.3863,1.5455 -0.947,0.3636 -2.0114,0.5454 -3.1932,0.5454 z m 18.3977,0 c -1.6364,0 -3.0454,-0.3863 -4.2273,-1.1591 -1.1818,-0.7727 -2.0909,-1.8371 -2.7272,-3.1931 -0.6364,-1.3561 -0.9546,-2.9053 -0.9546,-4.6478 0,-1.7727 0.3258,-3.3371 0.9773,-4.6931 0.6591,-1.36368 1.5757,-2.42808 2.75,-3.19323 1.1818,-0.77272 2.5606,-1.15909 4.1364,-1.15909 1.2272,0 2.3333,0.22727 3.3181,0.68182 0.9849,0.45455 1.7917,1.09091 2.4205,1.90909 0.6288,0.81818 1.0186,1.77271 1.1706,2.86361 h -2.682 c -0.2045,-0.7954 -0.6591,-1.5 -1.3636,-2.11361 -0.697,-0.62121 -1.6364,-0.93182 -2.8182,-0.93182 -1.0454,0 -1.9621,0.27273 -2.75,0.81818 -0.7803,0.53785 -1.3901,1.29925 -1.8295,2.28405 -0.4319,0.9773 -0.6478,2.125 -0.6478,3.4432 0,1.3485 0.2122,2.5228 0.6364,3.5228 0.4318,1 1.0379,1.7765 1.8182,2.3295 0.7879,0.553 1.7121,0.8295 2.7727,0.8295 0.697,0 1.3296,-0.1212 1.8977,-0.3636 0.5682,-0.2424 1.0493,-0.5909 1.4432,-1.0454 0.394,-0.4546 0.6743,-1 0.8409,-1.6364 h 2.682 c -0.152,1.0303 -0.5267,1.9583 -1.1252,2.7841 -0.5909,0.8182 -1.375,1.4697 -2.3522,1.9545 -0.9697,0.4773 -2.0985,0.7159 -3.3864,0.7159 z M 111.889,6.54545 v 2.27273 h -9.045 V 6.54545 Z M 105.48,2.36364 h 2.682 V 19 c 0,0.7576 0.11,1.3258 0.329,1.7045 0.228,0.3713 0.516,0.6213 0.864,0.75 0.356,0.1213 0.731,0.1819 1.125,0.1819 0.296,0 0.538,-0.0152 0.727,-0.0455 0.19,-0.0379 0.341,-0.0682 0.455,-0.0909 l 0.545,2.4091 c -0.181,0.0682 -0.435,0.1364 -0.761,0.2045 -0.326,0.0758 -0.739,0.1137 -1.239,0.1137 -0.757,0 -1.5,-0.1629 -2.227,-0.4887 -0.72,-0.3257 -1.318,-0.8219 -1.795,-1.4886 -0.47,-0.6667 -0.705,-1.5076 -0.705,-2.5227 z m 17.347,21.99996 c -1.576,0 -2.959,-0.375 -4.148,-1.125 -1.182,-0.75 -2.106,-1.7992 -2.773,-3.1477 -0.659,-1.3485 -0.988,-2.9242 -0.988,-4.7273 0,-1.8181 0.329,-3.4053 0.988,-4.7613 0.667,-1.35609 1.591,-2.40912 2.773,-3.15912 1.189,-0.75 2.572,-1.125 4.148,-1.125 1.575,0 2.954,0.375 4.136,1.125 1.189,0.75 2.114,1.80303 2.773,3.15912 0.666,1.356 1,2.9432 1,4.7613 0,1.8031 -0.334,3.3788 -1,4.7273 -0.659,1.3485 -1.584,2.3977 -2.773,3.1477 -1.182,0.75 -2.561,1.125 -4.136,1.125 z m 0,-2.4091 c 1.197,0 2.182,-0.3068 2.954,-0.9204 0.773,-0.6136 1.345,-1.4205 1.716,-2.4205 0.371,-1 0.557,-2.0833 0.557,-3.25 0,-1.1666 -0.186,-2.2538 -0.557,-3.2613 -0.371,-1.0076 -0.943,-1.822 -1.716,-2.44321 -0.772,-0.62121 -1.757,-0.93182 -2.954,-0.93182 -1.197,0 -2.182,0.31061 -2.955,0.93182 -0.773,0.62121 -1.345,1.43561 -1.716,2.44321 -0.371,1.0075 -0.557,2.0947 -0.557,3.2613 0,1.1667 0.186,2.25 0.557,3.25 0.371,1 0.943,1.8069 1.716,2.4205 0.773,0.6136 1.758,0.9204 2.955,0.9204 z m 24.366,-11.5 -2.409,0.6819 c -0.151,-0.4016 -0.375,-0.7917 -0.67,-1.17049 -0.288,-0.38636 -0.682,-0.70455 -1.182,-0.95455 -0.5,-0.25 -1.14,-0.375 -1.921,-0.375 -1.068,0 -1.958,0.24622 -2.67,0.73864 -0.705,0.48485 -1.057,1.1023 -1.057,1.8523 0,0.6666 0.243,1.1932 0.727,1.5795 0.485,0.3864 1.243,0.7084 2.273,0.9659 l 2.591,0.6364 c 1.561,0.3788 2.723,0.9583 3.489,1.7386 0.765,0.7728 1.147,1.769 1.147,2.9887 0,1 -0.288,1.8939 -0.863,2.6818 -0.568,0.7879 -1.364,1.4091 -2.387,1.8636 -1.022,0.4546 -2.212,0.6818 -3.568,0.6818 -1.78,0 -3.254,-0.3863 -4.42,-1.1591 -1.167,-0.7727 -1.906,-1.9015 -2.216,-3.3863 l 2.545,-0.6364 c 0.243,0.9394 0.701,1.644 1.375,2.1137 0.682,0.4697 1.572,0.7045 2.671,0.7045 1.25,0 2.242,-0.2652 2.977,-0.7955 0.742,-0.5378 1.114,-1.1818 1.114,-1.9318 0,-0.606 -0.212,-1.1136 -0.637,-1.5227 -0.424,-0.4167 -1.075,-0.7273 -1.954,-0.9318 l -2.909,-0.6818 c -1.599,-0.3788 -2.773,-0.9659 -3.523,-1.7614 -0.743,-0.803 -1.114,-1.8068 -1.114,-3.0114 0,-0.9848 0.277,-1.85602 0.83,-2.6136 0.56,-0.75758 1.322,-1.35227 2.284,-1.78409 0.97,-0.43182 2.068,-0.64773 3.295,-0.64773 1.728,0 3.084,0.37879 4.069,1.13636 0.992,0.75758 1.697,1.75758 2.113,2.99996 z"
         fill="#ffffff"
         id="path1-6"
         style="stroke-width:1.00157481;stroke-dasharray:none;fill:#c45e72;fill-opacity:1" /><text
         xml:space="preserve"
         style="font-style:normal;font-variant:normal;font-weight:bold;font-stretch:normal;font-size:42.6667px;font-family:Monospace;-inkscape-font-specification:'Monospace, Bold';font-variant-ligatures:normal;font-variant-caps:normal;font-variant-numeric:normal;font-variant-east-asian:normal;mix-blend-mode:lighten;fill:#c45e72;fill-opacity:1;stroke:#000000;stroke-width:1.00157;stroke-dasharray:none;stroke-opacity:0"
         x="-102.85827"
         y="65.747215"
         id="text15"><tspan
           sodipodi:role="line"
           id="tspan15"
           x="-102.85827"
           y="65.747215">Proyectos$</tspan></text><text
         xml:space="preserve"
         style="font-style:normal;font-variant:normal;font-weight:bold;font-stretch:normal;font-size:42.6667px;font-family:Monospace;-inkscape-font-specification:'Monospace, Bold';font-variant-ligatures:normal;font-variant-caps:normal;font-variant-numeric:normal;font-variant-east-asian:normal;mix-blend-mode:lighten;fill:#71d7c7;fill-opacity:1;stroke:#000000;stroke-width:1.00157;stroke-dasharray:none;stroke-opacity:0"
         x="-105.21044"
         y="119.49325"
         id="text16"><tspan
           sodipodi:role="line"
           id="tspan16"
           x="-105.21044"
           y="119.49325">martin:~</tspan></text><text
         xml:space="preserve"
         style="font-style:normal;font-variant:normal;font-weight:bold;font-stretch:normal;font-size:42.6667px;font-family:Monospace;-inkscape-font-specification:'Monospace, Bold';font-variant-ligatures:normal;font-variant-caps:normal;font-variant-numeric:normal;font-variant-east-asian:normal;mix-blend-mode:lighten;fill:#71d7c7;fill-opacity:1;stroke:#000000;stroke-width:1.00157;stroke-dasharray:none;stroke-opacity:0"
         x="-99.932091"
         y="165.05804"
         id="text17"><tspan
           sodipodi:role="line"
           id="tspan17"
           x="-99.932091"
           y="165.05804">$</tspan></text></g><g
       style="fill:none"
       id="g7"
       transform="matrix(0.26458333,0,0,0.26458333,81.35383,58.681703)"><path
         d="m 21.0188,22.7597 c -1.3566,0.7603 -1.7944,2.4806 -1.0376,3.84 C 20.4994,27.52 21.4566,28 22.4138,28 c 0.4786,0 0.9572,-0.1203 1.3962,-0.3597 1.3567,-0.8 1.7945,-2.5203 1.0376,-3.84 C 24.3295,22.88 23.3723,22.4 22.4151,22.4 c -0.4786,0 -0.9572,0.1203 -1.3963,0.3597 z m 6.9799,-7.9603 H 23.3723 C 23.2127,16.96 22.1356,18.88 20.5007,20.119 20.2212,20.3187 19.9417,20.5197 19.6226,20.7194 18.585,21.28 17.3891,21.6 16.1129,21.6 c -1.3159,0 -2.513,-0.32 -3.5902,-0.9203 l -2.55251,3.8797 c 1.79441,1.0803 3.86841,1.6806 6.14271,1.6806 0.878,0 1.7548,-0.0806 2.6329,-0.2803 -0.3191,-1.5603 0.3586,-3.2 1.7944,-4.0397 0.559,-0.32 1.1972,-0.48 1.8749,-0.48 0.9176,0 1.7944,0.32 2.4734,0.9203 C 26.7237,20.3597 27.88,17.7203 28,14.8006 Z M 9.0934,23.959 11.6459,20.0794 c -1.5953,-1.2404 -2.67247,-3.1207 -2.79244,-5.28 -0.03957,-0.16 -0.03957,-0.32 -0.03957,-0.5197 0,-0.16 0,-0.3597 0.03957,-0.5197 C 9.01299,11.4803 10.2101,9.51936 11.965,8.28032 L 9.53243,4.32 c -2.31387,1.52064 -4.06873,3.84 -4.8664,6.56 1.11673,0.64 1.9144,1.8803 1.9144,3.2806 0,1.4004 -0.79767,2.6804 -1.99481,3.3204 0.75811,2.6406 2.35344,4.9203 4.5065,6.4806 z M 2.79247,16.96 C 4.34824,16.96 5.6245,15.7197 5.6245,14.1594 5.6245,12.599 4.34824,11.319 2.79247,11.319 1.2367,11.319 0,12.599 0,14.1594 0,15.7197 1.2367,16.96 2.79247,16.96 Z m 7.65763,-13.20064 2.4325,4 c 0.9572,-0.48 2.074,-0.76032 3.2303,-0.76032 1.2762,0 2.4734,0.32 3.5493,0.92032 0.319,0.16 0.5985,0.35968 0.878,0.60032 1.5954,1.20064 2.6725,3.07972 2.8321,5.24032 h 4.6264 C 27.8788,10.72 26.6025,7.96032 24.609,5.92 c -0.5986,0.44032 -1.3567,0.67968 -2.1135,0.67968 -0.6777,0 -1.3159,-0.16 -1.8749,-0.48 C 19.3444,5.35936 18.6667,4 18.7458,2.63936 c -0.8781,-0.19968 -1.7549,-0.32 -2.6329,-0.32 -2.074,0 -3.9871,0.51968 -5.6628,1.44 z m 12.0441,1.88032 c 0.9572,0 1.9144,-0.48 2.4326,-1.40032 C 25.6849,2.87872 25.2063,1.11872 23.8891,0.359681 23.4501,0.119041 22.9715,6.25849e-7 22.4929,6.25849e-7 21.4962,6.25849e-7 20.5785,0.48 20.0604,1.40032 19.2627,2.76096 19.7413,4.48 21.098,5.28 c 0.439,0.24064 0.9176,0.35968 1.3962,0.35968 z"
         fill="#613583"
         id="path1-3" /></g><g
       id="g9"
       style="fill:#303030;fill-opacity:1"><g
         style="fill:#303030;fill-opacity:1;stroke:#ff0073;stroke-opacity:1"
         id="g3"
         transform="matrix(0.27170893,0,0,0.26891856,71.919642,57.948475)"
         inkscape:label="g3"><line
           x1="0.55551302"
           y1="33.771"
           x2="17.5555"
           y2="0.77101898"
           stroke="#ffffff"
           id="line15"
           style="fill:#303030;fill-opacity:1;stroke:#303030;stroke-opacity:1"
           inkscape:label="line1-0" /></g><rect
         style="fill:#303030;stroke-width:0.184087;fill-opacity:1"
         id="rect8"
         width="4.629797"
         height="0.13151444"
         x="71.95475"
         y="66.959297" /><path
         style="fill:#303030;fill-opacity:1;stroke:#000000;stroke-width:0.0625;stroke-opacity:1"
         d="m 273.40774,252.59079 c 0.38106,-0.75669 15.91421,-30.58936 15.94145,-30.61683 0.0142,-0.0143 0.0258,6.96771 0.0258,15.51562 v 15.54167 h -8.09454 -8.09453 z"
         id="path9"
         transform="scale(0.26458333)" /></g><line
       x1="91.173813"
       y1="67.029076"
       x2="95.792923"
       y2="58.161362"
       stroke="#ffffff"
       id="line1-0"
       style="fill:#303030;fill-opacity:1;stroke:#808080;stroke-width:0.270211;stroke-opacity:1"
       inkscape:label="line1-0" /></g></svg>
