<?xml version="1.0" encoding="UTF-8" standalone="no"?>
<!-- Created with Inkscape (http://www.inkscape.org/) -->

<svg
   width="156.03838mm"
   height="11.846588mm"
   viewBox="0 0 156.03838 11.846588"
   version="1.1"
   id="svg1"
   xml:space="preserve"
   inkscape:export-filename="flecha.svg"
   inkscape:export-xdpi="95.552132"
   inkscape:export-ydpi="95.552132"
   inkscape:version="1.3.2 (091e20e, 2023-11-25)"
   sodipodi:docname="flecha.svg"
   xmlns:inkscape="http://www.inkscape.org/namespaces/inkscape"
   xmlns:sodipodi="http://sodipodi.sourceforge.net/DTD/sodipodi-0.dtd"
   xmlns="http://www.w3.org/2000/svg"
   xmlns:svg="http://www.w3.org/2000/svg"><sodipodi:namedview
     id="namedview1"
     pagecolor="#505050"
     bordercolor="#eeeeee"
     borderopacity="1"
     inkscape:showpageshadow="0"
     inkscape:pageopacity="0"
     inkscape:pagecheckerboard="0"
     inkscape:deskcolor="#505050"
     inkscape:document-units="mm"
     inkscape:zoom="2.8284271"
     inkscape:cx="423.73374"
     inkscape:cy="299.6365"
     inkscape:window-width="1896"
     inkscape:window-height="1001"
     inkscape:window-x="12"
     inkscape:window-y="67"
     inkscape:window-maximized="1"
     inkscape:current-layer="layer1"
     inkscape:export-bgcolor="#ffffff00" /><defs
     id="defs1" /><g
     inkscape:label="Capa 1"
     inkscape:groupmode="layer"
     id="layer1"
     transform="translate(-52.044095,-68.106451)"><g
       style="fill:#303030;fill-opacity:1;stroke:#010101;stroke-opacity:0"
       id="g6"
       transform="matrix(0.61180562,0,0,0.33624568,58.03346,68.274573)"><rect
         width="233"
         height="34"
         fill="#000000"
         id="rect1"
         x="0"
         y="0"
         style="fill:#303030;fill-opacity:1;stroke:#010101;stroke-opacity:0" /></g><g
       id="g9"
       style="fill:#303030;fill-opacity:1"
       transform="matrix(1.2734632,0,0,1.270207,-39.476365,-5.5156613)"><g
         style="fill:#303030;fill-opacity:1;stroke:#303030;stroke-opacity:1"
         id="g3"
         transform="matrix(0.27170893,0,0,0.26891856,71.919642,57.948475)"
         inkscape:label="g3"><line
           x1="0.55551302"
           y1="33.771"
           x2="17.5555"
           y2="0.77101898"
           stroke="#ffffff"
           id="line15"
           style="fill:#303030;fill-opacity:1;stroke:#303030;stroke-opacity:1"
           inkscape:label="line1-0" /></g><rect
         style="fill:#303030;fill-opacity:1;stroke-width:0.184087"
         id="rect8"
         width="4.629797"
         height="0.13151444"
         x="71.95475"
         y="66.959297" /><path
         style="fill:#303030;fill-opacity:1;stroke:#303030;stroke-width:0.0177369;stroke-opacity:0.0119118"
         d="m 71.946879,66.97316 c 0.111199,-0.208838 4.643939,-8.442327 4.651888,-8.449908 0.0042,-0.004 0.0075,1.923011 0.0075,4.28214 v 4.28933 h -2.36205 -2.362071 z"
         id="path9" /></g><g
       style="fill:#303030;fill-opacity:1"
       id="g4"
       transform="matrix(0.27929672,0,0,0.33019267,200.50632,68.02465)"><path
         d="M 27.125839,18.080299 0.1258384,35.400799 V 0.75979057 Z"
         fill="#000000"
         id="path1"
         style="fill:#303030;fill-opacity:1" /></g><g
       style="fill:#c45e72;fill-opacity:1;stroke-width:1.00157;stroke-dasharray:none"
       id="g5"
       transform="matrix(0.26458333,0,0,0.26458333,130.70299,57.020083)"
       inkscape:label="g5"><g
         id="g17"
         transform="translate(-62.649445,-44.516694)"><text
           xml:space="preserve"
           style="font-style:normal;font-variant:normal;font-weight:bold;font-stretch:normal;font-size:42.6667px;font-family:Monospace;-inkscape-font-specification:'Monospace, Bold';font-variant-ligatures:normal;font-variant-caps:normal;font-variant-numeric:normal;font-variant-east-asian:normal;mix-blend-mode:lighten;fill:#c45e72;fill-opacity:1;stroke:#000000;stroke-width:1.00157;stroke-dasharray:none;stroke-opacity:0"
           x="64.734665"
           y="120.23833"
           id="text15"><tspan
             sodipodi:role="line"
             id="tspan15"
             x="64.734665"
             y="120.23833">Proyectos</tspan></text><text
           xml:space="preserve"
           style="font-style:normal;font-variant:normal;font-weight:bold;font-stretch:normal;font-size:42.6667px;font-family:Monospace;-inkscape-font-specification:'Monospace, Bold';font-variant-ligatures:normal;font-variant-caps:normal;font-variant-numeric:normal;font-variant-east-asian:normal;mix-blend-mode:lighten;fill:#71d7c7;fill-opacity:1;stroke:#000000;stroke-width:1.00157;stroke-dasharray:none;stroke-opacity:0"
           x="-140.69556"
           y="121.49792"
           id="text16"><tspan
             sodipodi:role="line"
             id="tspan16"
             x="-140.69556"
             y="121.49792">martin:~</tspan></text><text
           xml:space="preserve"
           style="font-style:normal;font-variant:normal;font-weight:bold;font-stretch:normal;font-size:42.6667px;font-family:Monospace;-inkscape-font-specification:'Monospace, Bold';font-variant-ligatures:normal;font-variant-caps:normal;font-variant-numeric:normal;font-variant-east-asian:normal;mix-blend-mode:lighten;fill:#71d7c7;fill-opacity:1;stroke:#000000;stroke-width:1.00157;stroke-dasharray:none;stroke-opacity:0"
           x="296.83957"
           y="123.46008"
           id="text17"><tspan
             sodipodi:role="line"
             id="tspan17"
             x="296.83957"
             y="123.46008">$</tspan></text></g></g><g
       style="fill:none"
       id="g7"
       transform="matrix(0.34723987,0,0,0.34723987,59.962582,69.173346)"><path
         d="m 21.0188,22.7597 c -1.3566,0.7603 -1.7944,2.4806 -1.0376,3.84 C 20.4994,27.52 21.4566,28 22.4138,28 c 0.4786,0 0.9572,-0.1203 1.3962,-0.3597 1.3567,-0.8 1.7945,-2.5203 1.0376,-3.84 C 24.3295,22.88 23.3723,22.4 22.4151,22.4 c -0.4786,0 -0.9572,0.1203 -1.3963,0.3597 z m 6.9799,-7.9603 H 23.3723 C 23.2127,16.96 22.1356,18.88 20.5007,20.119 20.2212,20.3187 19.9417,20.5197 19.6226,20.7194 18.585,21.28 17.3891,21.6 16.1129,21.6 c -1.3159,0 -2.513,-0.32 -3.5902,-0.9203 l -2.55251,3.8797 c 1.79441,1.0803 3.86841,1.6806 6.14271,1.6806 0.878,0 1.7548,-0.0806 2.6329,-0.2803 -0.3191,-1.5603 0.3586,-3.2 1.7944,-4.0397 0.559,-0.32 1.1972,-0.48 1.8749,-0.48 0.9176,0 1.7944,0.32 2.4734,0.9203 C 26.7237,20.3597 27.88,17.7203 28,14.8006 Z M 9.0934,23.959 11.6459,20.0794 c -1.5953,-1.2404 -2.67247,-3.1207 -2.79244,-5.28 -0.03957,-0.16 -0.03957,-0.32 -0.03957,-0.5197 0,-0.16 0,-0.3597 0.03957,-0.5197 C 9.01299,11.4803 10.2101,9.51936 11.965,8.28032 L 9.53243,4.32 c -2.31387,1.52064 -4.06873,3.84 -4.8664,6.56 1.11673,0.64 1.9144,1.8803 1.9144,3.2806 0,1.4004 -0.79767,2.6804 -1.99481,3.3204 0.75811,2.6406 2.35344,4.9203 4.5065,6.4806 z M 2.79247,16.96 C 4.34824,16.96 5.6245,15.7197 5.6245,14.1594 5.6245,12.599 4.34824,11.319 2.79247,11.319 1.2367,11.319 0,12.599 0,14.1594 0,15.7197 1.2367,16.96 2.79247,16.96 Z m 7.65763,-13.20064 2.4325,4 c 0.9572,-0.48 2.074,-0.76032 3.2303,-0.76032 1.2762,0 2.4734,0.32 3.5493,0.92032 0.319,0.16 0.5985,0.35968 0.878,0.60032 1.5954,1.20064 2.6725,3.07972 2.8321,5.24032 h 4.6264 C 27.8788,10.72 26.6025,7.96032 24.609,5.92 c -0.5986,0.44032 -1.3567,0.67968 -2.1135,0.67968 -0.6777,0 -1.3159,-0.16 -1.8749,-0.48 C 19.3444,5.35936 18.6667,4 18.7458,2.63936 c -0.8781,-0.19968 -1.7549,-0.32 -2.6329,-0.32 -2.074,0 -3.9871,0.51968 -5.6628,1.44 z m 12.0441,1.88032 c 0.9572,0 1.9144,-0.48 2.4326,-1.40032 C 25.6849,2.87872 25.2063,1.11872 23.8891,0.359681 23.4501,0.119041 22.9715,6.25849e-7 22.4929,6.25849e-7 21.4962,6.25849e-7 20.5785,0.48 20.0604,1.40032 19.2627,2.76096 19.7413,4.48 21.098,5.28 c 0.439,0.24064 0.9176,0.35968 1.3962,0.35968 z"
         fill="#613583"
         id="path1-3" /></g><line
       x1="70.42733"
       y1="79.673256"
       x2="76.300522"
       y2="68.397972"
       stroke="#ffffff"
       id="line1-0"
       style="fill:#303030;fill-opacity:1;stroke:#808080;stroke-width:0.343574;stroke-opacity:1"
       inkscape:label="line1-0" /><rect
       style="display:inline;opacity:1;fill:#303030;fill-opacity:1;stroke:#303030;stroke-width:0.18238;stroke-dasharray:none;stroke-opacity:1"
       id="rect22"
       width="0.60332346"
       height="11.155311"
       x="58.132427"
       y="68.468666" /></g></svg>
