<svg width="148" height="31" viewBox="0 0 148 31" fill="none" xmlns="http://www.w3.org/2000/svg">
<path d="M0.818182 24V0.727272H8.68182C10.5076 0.727272 12 1.05682 13.1591 1.71591C14.3258 2.36742 15.1894 3.25 15.75 4.36364C16.3106 5.47727 16.5909 6.7197 16.5909 8.09091C16.5909 9.46212 16.3106 10.7083 15.75 11.8295C15.197 12.9508 14.3409 13.8447 13.1818 14.5114C12.0227 15.1705 10.5379 15.5 8.72727 15.5H3.09091V13H8.63636C9.88636 13 10.8902 12.7841 11.6477 12.3523C12.4053 11.9205 12.9545 11.3371 13.2955 10.6023C13.6439 9.85985 13.8182 9.02273 13.8182 8.09091C13.8182 7.15909 13.6439 6.32576 13.2955 5.59091C12.9545 4.85606 12.4015 4.2803 11.6364 3.86364C10.8712 3.43939 9.85606 3.22727 8.59091 3.22727H3.63636V24H0.818182ZM20.767 24V6.54545H23.358V9.18182H23.5398C23.858 8.31818 24.4337 7.61742 25.267 7.07954C26.1004 6.54167 27.0398 6.27273 28.0852 6.27273C28.2822 6.27273 28.5284 6.27651 28.8239 6.28409C29.1193 6.29167 29.3428 6.30303 29.4943 6.31818V9.04545C29.4034 9.02273 29.1951 8.98864 28.8693 8.94318C28.5511 8.89015 28.214 8.86364 27.858 8.86364C27.0095 8.86364 26.2519 9.04167 25.5852 9.39773C24.9261 9.74621 24.4034 10.2311 24.017 10.8523C23.6383 11.4659 23.4489 12.1667 23.4489 12.9545V24H20.767ZM39.233 24.3636C37.6572 24.3636 36.2746 23.9886 35.0852 23.2386C33.9034 22.4886 32.9792 21.4394 32.3125 20.0909C31.6534 18.7424 31.3239 17.1667 31.3239 15.3636C31.3239 13.5455 31.6534 11.9583 32.3125 10.6023C32.9792 9.24621 33.9034 8.19318 35.0852 7.44318C36.2746 6.69318 37.6572 6.31818 39.233 6.31818C40.8087 6.31818 42.1875 6.69318 43.3693 7.44318C44.5587 8.19318 45.483 9.24621 46.142 10.6023C46.8087 11.9583 47.142 13.5455 47.142 15.3636C47.142 17.1667 46.8087 18.7424 46.142 20.0909C45.483 21.4394 44.5587 22.4886 43.3693 23.2386C42.1875 23.9886 40.8087 24.3636 39.233 24.3636ZM39.233 21.9545C40.4299 21.9545 41.4148 21.6477 42.1875 21.0341C42.9602 20.4205 43.5322 19.6136 43.9034 18.6136C44.2746 17.6136 44.4602 16.5303 44.4602 15.3636C44.4602 14.197 44.2746 13.1098 43.9034 12.1023C43.5322 11.0947 42.9602 10.2803 42.1875 9.65909C41.4148 9.03788 40.4299 8.72727 39.233 8.72727C38.036 8.72727 37.0511 9.03788 36.2784 9.65909C35.5057 10.2803 34.9337 11.0947 34.5625 12.1023C34.1913 13.1098 34.0057 14.197 34.0057 15.3636C34.0057 16.5303 34.1913 17.6136 34.5625 18.6136C34.9337 19.6136 35.5057 20.4205 36.2784 21.0341C37.0511 21.6477 38.036 21.9545 39.233 21.9545ZM52.3381 30.5455C51.8835 30.5455 51.4782 30.5076 51.1222 30.4318C50.7661 30.3636 50.5199 30.2955 50.3835 30.2273L51.0653 27.8636C51.7169 28.0303 52.2926 28.0909 52.7926 28.0455C53.2926 28 53.7358 27.7765 54.1222 27.375C54.5161 26.9811 54.8759 26.3409 55.2017 25.4545L55.7017 24.0909L49.2472 6.54545H52.1562L56.9744 20.4545H57.1562L61.9744 6.54545H64.8835L57.4744 26.5455C57.1411 27.447 56.7282 28.1932 56.2358 28.7841C55.7434 29.3826 55.1714 29.8258 54.5199 30.1136C53.8759 30.4015 53.1487 30.5455 52.3381 30.5455ZM75.1165 24.3636C73.4347 24.3636 71.9839 23.9924 70.7642 23.25C69.5521 22.5 68.6165 21.4545 67.9574 20.1136C67.3059 18.7652 66.9801 17.197 66.9801 15.4091C66.9801 13.6212 67.3059 12.0455 67.9574 10.6818C68.6165 9.31061 69.5331 8.24242 70.7074 7.47727C71.8892 6.70455 73.268 6.31818 74.8438 6.31818C75.7528 6.31818 76.6506 6.4697 77.5369 6.77273C78.4233 7.07576 79.2301 7.56818 79.9574 8.25C80.6847 8.92424 81.2642 9.81818 81.696 10.9318C82.1278 12.0455 82.3438 13.4167 82.3438 15.0455V16.1818H68.8892V13.8636H79.6165C79.6165 12.8788 79.4195 12 79.0256 11.2273C78.6392 10.4545 78.0862 9.8447 77.3665 9.39773C76.6544 8.95076 75.8134 8.72727 74.8438 8.72727C73.7756 8.72727 72.8513 8.99242 72.071 9.52273C71.2983 10.0455 70.7036 10.7273 70.2869 11.5682C69.8703 12.4091 69.6619 13.3106 69.6619 14.2727V15.8182C69.6619 17.1364 69.8892 18.2538 70.3438 19.1705C70.8059 20.0795 71.446 20.7727 72.2642 21.25C73.0824 21.7197 74.0331 21.9545 75.1165 21.9545C75.821 21.9545 76.4574 21.8561 77.0256 21.6591C77.6013 21.4545 78.0975 21.1515 78.5142 20.75C78.9309 20.3409 79.2528 19.8333 79.4801 19.2273L82.071 19.9545C81.7983 20.8333 81.34 21.6061 80.696 22.2727C80.0521 22.9318 79.2566 23.447 78.3097 23.8182C77.3627 24.1818 76.2983 24.3636 75.1165 24.3636ZM93.5142 24.3636C91.8778 24.3636 90.4688 23.9773 89.2869 23.2045C88.1051 22.4318 87.196 21.3674 86.5597 20.0114C85.9233 18.6553 85.6051 17.1061 85.6051 15.3636C85.6051 13.5909 85.9309 12.0265 86.5824 10.6705C87.2415 9.30682 88.1581 8.24242 89.3324 7.47727C90.5142 6.70455 91.893 6.31818 93.4688 6.31818C94.696 6.31818 95.8021 6.54545 96.7869 7C97.7718 7.45455 98.5786 8.09091 99.2074 8.90909C99.8362 9.72727 100.226 10.6818 100.378 11.7727H97.696C97.4915 10.9773 97.0369 10.2727 96.3324 9.65909C95.6354 9.03788 94.696 8.72727 93.5142 8.72727C92.4688 8.72727 91.5521 9 90.7642 9.54545C89.9839 10.0833 89.3741 10.8447 88.9347 11.8295C88.5028 12.8068 88.2869 13.9545 88.2869 15.2727C88.2869 16.6212 88.4991 17.7955 88.9233 18.7955C89.3551 19.7955 89.9612 20.572 90.7415 21.125C91.5294 21.678 92.4536 21.9545 93.5142 21.9545C94.2112 21.9545 94.8438 21.8333 95.4119 21.5909C95.9801 21.3485 96.4612 21 96.8551 20.5455C97.2491 20.0909 97.5294 19.5455 97.696 18.9091H100.378C100.226 19.9394 99.8513 20.8674 99.2528 21.6932C98.6619 22.5114 97.8778 23.1629 96.9006 23.6477C95.9309 24.125 94.8021 24.3636 93.5142 24.3636ZM111.889 6.54545V8.81818H102.844V6.54545H111.889ZM105.48 2.36364H108.162V19C108.162 19.7576 108.272 20.3258 108.491 20.7045C108.719 21.0758 109.007 21.3258 109.355 21.4545C109.711 21.5758 110.086 21.6364 110.48 21.6364C110.776 21.6364 111.018 21.6212 111.207 21.5909C111.397 21.553 111.548 21.5227 111.662 21.5L112.207 23.9091C112.026 23.9773 111.772 24.0455 111.446 24.1136C111.12 24.1894 110.707 24.2273 110.207 24.2273C109.45 24.2273 108.707 24.0644 107.98 23.7386C107.26 23.4129 106.662 22.9167 106.185 22.25C105.715 21.5833 105.48 20.7424 105.48 19.7273V2.36364ZM122.827 24.3636C121.251 24.3636 119.868 23.9886 118.679 23.2386C117.497 22.4886 116.573 21.4394 115.906 20.0909C115.247 18.7424 114.918 17.1667 114.918 15.3636C114.918 13.5455 115.247 11.9583 115.906 10.6023C116.573 9.24621 117.497 8.19318 118.679 7.44318C119.868 6.69318 121.251 6.31818 122.827 6.31818C124.402 6.31818 125.781 6.69318 126.963 7.44318C128.152 8.19318 129.077 9.24621 129.736 10.6023C130.402 11.9583 130.736 13.5455 130.736 15.3636C130.736 17.1667 130.402 18.7424 129.736 20.0909C129.077 21.4394 128.152 22.4886 126.963 23.2386C125.781 23.9886 124.402 24.3636 122.827 24.3636ZM122.827 21.9545C124.024 21.9545 125.009 21.6477 125.781 21.0341C126.554 20.4205 127.126 19.6136 127.497 18.6136C127.868 17.6136 128.054 16.5303 128.054 15.3636C128.054 14.197 127.868 13.1098 127.497 12.1023C127.126 11.0947 126.554 10.2803 125.781 9.65909C125.009 9.03788 124.024 8.72727 122.827 8.72727C121.63 8.72727 120.645 9.03788 119.872 9.65909C119.099 10.2803 118.527 11.0947 118.156 12.1023C117.785 13.1098 117.599 14.197 117.599 15.3636C117.599 16.5303 117.785 17.6136 118.156 18.6136C118.527 19.6136 119.099 20.4205 119.872 21.0341C120.645 21.6477 121.63 21.9545 122.827 21.9545ZM147.193 10.4545L144.784 11.1364C144.633 10.7348 144.409 10.3447 144.114 9.96591C143.826 9.57955 143.432 9.26136 142.932 9.01136C142.432 8.76136 141.792 8.63636 141.011 8.63636C139.943 8.63636 139.053 8.88258 138.341 9.375C137.636 9.85985 137.284 10.4773 137.284 11.2273C137.284 11.8939 137.527 12.4205 138.011 12.8068C138.496 13.1932 139.254 13.5152 140.284 13.7727L142.875 14.4091C144.436 14.7879 145.598 15.3674 146.364 16.1477C147.129 16.9205 147.511 17.9167 147.511 19.1364C147.511 20.1364 147.223 21.0303 146.648 21.8182C146.08 22.6061 145.284 23.2273 144.261 23.6818C143.239 24.1364 142.049 24.3636 140.693 24.3636C138.913 24.3636 137.439 23.9773 136.273 23.2045C135.106 22.4318 134.367 21.303 134.057 19.8182L136.602 19.1818C136.845 20.1212 137.303 20.8258 137.977 21.2955C138.659 21.7652 139.549 22 140.648 22C141.898 22 142.89 21.7348 143.625 21.2045C144.367 20.6667 144.739 20.0227 144.739 19.2727C144.739 18.6667 144.527 18.1591 144.102 17.75C143.678 17.3333 143.027 17.0227 142.148 16.8182L139.239 16.1364C137.64 15.7576 136.466 15.1705 135.716 14.375C134.973 13.572 134.602 12.5682 134.602 11.3636C134.602 10.3788 134.879 9.50758 135.432 8.75C135.992 7.99242 136.754 7.39773 137.716 6.96591C138.686 6.53409 139.784 6.31818 141.011 6.31818C142.739 6.31818 144.095 6.69697 145.08 7.45454C146.072 8.21212 146.777 9.21212 147.193 10.4545Z" fill="white"/>
</svg>
