<svg width="28" height="28" viewBox="0 0 28 28" fill="none" xmlns="http://www.w3.org/2000/svg">
<path d="M21.0188 22.7597C19.6622 23.52 19.2244 25.2403 19.9812 26.5997C20.4994 27.52 21.4566 28 22.4138 28C22.8924 28 23.371 27.8797 23.81 27.6403C25.1667 26.8403 25.6045 25.12 24.8476 23.8003C24.3295 22.88 23.3723 22.4 22.4151 22.4C21.9365 22.4 21.4579 22.5203 21.0188 22.7597ZM27.9987 14.7994H23.3723C23.2127 16.96 22.1356 18.88 20.5007 20.119C20.2212 20.3187 19.9417 20.5197 19.6226 20.7194C18.585 21.28 17.3891 21.6 16.1129 21.6C14.797 21.6 13.5999 21.28 12.5227 20.6797L9.97019 24.5594C11.7646 25.6397 13.8386 26.24 16.1129 26.24C16.9909 26.24 17.8677 26.1594 18.7458 25.9597C18.4267 24.3994 19.1044 22.7597 20.5402 21.92C21.0992 21.6 21.7374 21.44 22.4151 21.44C23.3327 21.44 24.2095 21.76 24.8885 22.3603C26.7237 20.3597 27.88 17.7203 28 14.8006L27.9987 14.7994ZM9.0934 23.959L11.6459 20.0794C10.0506 18.839 8.97343 16.9587 8.85346 14.7994C8.81389 14.6394 8.81389 14.4794 8.81389 14.2797C8.81389 14.1197 8.81389 13.92 8.85346 13.76C9.01299 11.4803 10.2101 9.51936 11.965 8.28032L9.53243 4.32C7.21856 5.84064 5.4637 8.16 4.66603 10.88C5.78276 11.52 6.58043 12.7603 6.58043 14.1606C6.58043 15.561 5.78276 16.841 4.58562 17.481C5.34373 20.1216 6.93906 22.4013 9.09212 23.9616L9.0934 23.959ZM2.79247 16.96C4.34824 16.96 5.6245 15.7197 5.6245 14.1594C5.6245 12.599 4.34824 11.319 2.79247 11.319C1.2367 11.319 0 12.599 0 14.1594C0 15.7197 1.2367 16.96 2.79247 16.96ZM10.4501 3.75936L12.8826 7.75936C13.8398 7.27936 14.9566 6.99904 16.1129 6.99904C17.3891 6.99904 18.5863 7.31904 19.6622 7.91936C19.9812 8.07936 20.2607 8.27904 20.5402 8.51968C22.1356 9.72032 23.2127 11.5994 23.3723 13.76H27.9987C27.8788 10.72 26.6025 7.96032 24.609 5.92C24.0104 6.36032 23.2523 6.59968 22.4955 6.59968C21.8178 6.59968 21.1796 6.43968 20.6206 6.11968C19.3444 5.35936 18.6667 4 18.7458 2.63936C17.8677 2.43968 16.9909 2.31936 16.1129 2.31936C14.0389 2.31936 12.1258 2.83904 10.4501 3.75936ZM22.4942 5.63968C23.4514 5.63968 24.4086 5.15968 24.9268 4.23936C25.6849 2.87872 25.2063 1.11872 23.8891 0.359681C23.4501 0.119041 22.9715 6.25849e-07 22.4929 6.25849e-07C21.4962 6.25849e-07 20.5785 0.48 20.0604 1.40032C19.2627 2.76096 19.7413 4.48 21.098 5.28C21.537 5.52064 22.0156 5.63968 22.4942 5.63968Z" fill="#613583"/>
</svg>
